<?xml version="1.0" encoding="utf-8"?>
<!-- Generator: Adobe Illustrator 16.0.0, SVG Export Plug-In . SVG Version: 6.00 Build 0)  -->
<!DOCTYPE svg PUBLIC "-//W3C//DTD SVG 1.1//EN" "http://www.w3.org/Graphics/SVG/1.1/DTD/svg11.dtd">
<svg version="1.1" id="Layer_1" xmlns="http://www.w3.org/2000/svg" xmlns:xlink="http://www.w3.org/1999/xlink" x="0px" y="0px"
	 width="2194.998px" height="2194.997px" viewBox="0 0 2194.998 2194.997" enable-background="new 0 0 2194.998 2194.997"
	 xml:space="preserve">
<rect fill-rule="evenodd" clip-rule="evenodd" fill="#9FC4E8" width="2194.998" height="2194.997"/>
<g>
	<g>
		<path fill-rule="evenodd" clip-rule="evenodd" fill="#E1F3FC" d="M556.105,1587.446c-25.413,53.813-203.272-22.668-203.272-22.668
			l16.557-29.679l-29.401,25.703c0,0-40.84-8.725-81.708-61.971c-23.154-30.166-29.037-65.477-29.037-65.477
			s78.848-34.524,128.405-17.553l-13.89,45.71l29.585-36.924C373.345,1424.589,583.369,1529.716,556.105,1587.446z"/>
		<g>
			<path fill-rule="evenodd" clip-rule="evenodd" fill="#FFFFFF" d="M548.505,1579.7c-50.111-24.328-100.278-48.5-150.591-72.396
				c-25.149-11.96-50.35-23.815-75.622-35.525c-12.629-5.865-25.311-11.63-38.011-17.353c-6.39-2.786-12.736-5.65-19.158-8.371
				l-9.667-4.014c-3.229-1.328-6.616-2.409-9.912-3.62c-0.538-0.198-1.135,0.078-1.333,0.617c-0.195,0.53,0.071,1.118,0.594,1.324
				l0.156,0.062c3.21,1.26,6.444,2.357,9.626,3.738l9.537,4.184c6.341,2.835,12.627,5.823,18.943,8.727
				c12.569,5.966,25.118,11.973,37.623,18.083c25.017,12.198,49.965,24.544,74.863,36.994
				c49.806,24.874,99.482,50.032,149.069,75.33c2.136,1.095,4.756,0.251,5.852-1.886s0.251-4.757-1.886-5.852
				C548.57,1579.733,548.523,1579.711,548.505,1579.7z"/>
		</g>
	</g>
	<g>
		<path fill-rule="evenodd" clip-rule="evenodd" fill="#CEE5F6" d="M544.875,1592.449c-66.191,4.32-87.793-210.394-87.793-210.394
			l37.881,0.095l-40.949-14.764c0,0-13.574-44.525,16.234-113.147c16.888-38.877,48.127-63.7,48.127-63.7
			s76.278,58.193,86.525,115.675l-52.064,11.172l51.985,8.877C604.82,1326.263,615.887,1587.815,544.875,1592.449z"/>
		<g>
			<path fill-rule="evenodd" clip-rule="evenodd" fill="#FFFFFF" d="M548.316,1580.854c-3.375-61.997-6.934-123.967-10.841-185.926
				c-1.938-30.979-4.004-61.953-6.252-92.918c-1.111-15.481-2.347-30.959-3.634-46.432c-0.738-7.734-1.377-15.469-2.198-23.199
				l-1.313-11.594c-0.451-3.865-1.228-7.752-1.83-11.618c-0.098-0.632-0.69-1.064-1.322-0.966c-0.623,0.097-1.052,0.673-0.97,1.295
				l0.025,0.186c0.508,3.81,1.186,7.556,1.56,11.404l1.079,11.558c0.664,7.714,1.149,15.457,1.734,23.183
				c0.98,15.477,1.908,30.956,2.712,46.447c1.634,30.98,3.087,61.973,4.411,92.973c2.68,61.995,5.011,124.019,7.159,186.029
				c0.087,2.675,2.327,4.771,5.002,4.685c2.674-0.088,4.771-2.327,4.684-5.001C548.32,1580.935,548.317,1580.877,548.316,1580.854z"
				/>
		</g>
	</g>
	<g>
		<path fill-rule="evenodd" clip-rule="evenodd" fill="#FFFFFF" d="M546.243,1590.63
			c-61.712,36.331-186.883-160.164-186.883-160.164l36.564-18.317l-46.651,5.668c0,0-34.724-36.328-39.336-116.968
			c-2.613-45.688,15.439-84.799,15.439-84.799s101.815,19.031,139.628,69.465l-44.763,36.072l54.43-16.705
			C474.672,1304.882,612.448,1551.651,546.243,1590.63z"/>
		<g>
			<path fill-rule="evenodd" clip-rule="evenodd" fill="#E1F3FC" d="M543.925,1577.777
				c-33.383-58.127-66.93-116.139-100.807-173.972c-16.923-28.924-33.968-57.779-51.183-86.537
				c-8.595-14.385-17.308-28.705-26.068-42.996c-4.471-7.098-8.845-14.244-13.394-21.298l-6.9-10.538
				c-2.313-3.507-4.952-6.876-7.41-10.312c-0.401-0.562-1.183-0.69-1.744-0.288c-0.554,0.396-0.688,1.16-0.306,1.72l0.114,0.167
				c2.341,3.426,4.815,6.707,7.046,10.235l6.657,10.619c4.389,7.113,8.62,14.342,12.938,21.506
				c8.466,14.443,16.884,28.916,25.188,43.459c16.631,29.072,33.093,58.244,49.435,87.485
				c32.711,58.465,65.101,117.124,97.307,175.861c1.384,2.536,4.562,3.47,7.098,2.085c2.536-1.384,3.469-4.562,2.085-7.098
				C543.968,1577.854,543.937,1577.8,543.925,1577.777z"/>
		</g>
	</g>
</g>
<g>
	<g>
		<path fill-rule="evenodd" clip-rule="evenodd" fill="#004DA1" d="M580.515,1419.508
			c-99.203-26.371-171.411-120.624-189.458-220.814c-1.539-8.531-14.934-6.794-13.392,1.801
			c19.138,106.188,93.418,203.791,201.018,232.398C587.084,1435.118,588.81,1421.709,580.515,1419.508z"/>
	</g>
	<path fill-rule="evenodd" clip-rule="evenodd" fill="#004DA1" d="M380.669,1215.001c0,0-2.984-1.112-6.977-3.379
		c-4.036-2.209-9.019-5.489-13.906-9.69c-9.692-8.317-17.191-20.366-19.555-33.387c-2.377-13.034,0.458-26.943,6.678-38.126
		c3.14-5.597,6.727-10.445,9.781-13.934c2.952-3.479,5.378-5.566,5.378-5.566s3.035,1.136,7.003,3.354
		c4.079,2.211,9.082,5.521,13.971,9.68c9.725,8.345,17.189,20.409,19.472,33.439c2.278,13.048-0.595,26.956-6.781,38.152
		c-3.105,5.568-6.669,10.405-9.693,13.877C383.076,1212.899,380.669,1215.001,380.669,1215.001z"/>
	<path fill-rule="evenodd" clip-rule="evenodd" fill="#004DA1" d="M418.617,1292.617c0,0-2.259,2.281-5.908,5.003
		c-3.698,2.776-8.71,6.005-14.514,8.737c-11.557,5.468-25.632,7.416-38.483,4.26c-12.874-3.114-24.441-11.378-32.108-21.614
		c-3.849-5.166-6.794-10.39-8.743-14.607c-1.97-4.113-2.895-7.168-2.895-7.168s2.298-2.31,5.917-5.032
		c3.692-2.836,8.741-6.046,14.543-8.843c11.569-5.467,25.63-7.369,38.461-4.138c12.854,3.187,24.391,11.492,32.066,21.729
		c3.852,5.093,6.809,10.313,8.741,14.519C417.679,1289.563,418.617,1292.617,418.617,1292.617z"/>
	<path fill-rule="evenodd" clip-rule="evenodd" fill="#004DA1" d="M437.593,1316.622c0,0-1.704-2.698-3.534-6.896
		c-1.882-4.191-3.871-9.829-5.247-16.097c-2.736-12.488-1.443-26.63,4.505-38.452c5.944-11.835,16.589-21.238,28.31-26.406
		c5.863-2.599,11.648-4.289,16.165-5.235c4.461-0.975,7.68-1.199,7.68-1.199s1.731,2.759,3.563,6.914
		c1.907,4.217,3.925,9.872,5.318,16.141c2.739,12.519,1.395,26.642-4.606,38.406c-6.028,11.79-16.706,21.158-28.403,26.356
		c-5.846,2.6-11.58,4.296-16.102,5.268C440.781,1316.396,437.593,1316.622,437.593,1316.622z"/>
	<path fill-rule="evenodd" clip-rule="evenodd" fill="#004DA1" d="M501.187,1389.607c0,0-1.716-2.699-3.521-6.912
		c-1.886-4.199-3.91-9.817-5.276-16.11c-2.728-12.476-1.438-26.613,4.514-38.452c5.96-11.805,16.602-21.233,28.31-26.376
		c5.884-2.599,11.627-4.307,16.177-5.248c4.462-0.991,7.662-1.188,7.662-1.188s1.715,2.729,3.56,6.885
		c1.927,4.247,3.929,9.89,5.331,16.142c2.739,12.522,1.403,26.658-4.628,38.418c-5.998,11.791-16.689,21.175-28.369,26.361
		c-5.854,2.6-11.605,4.291-16.118,5.251C504.379,1389.369,501.187,1389.607,501.187,1389.607z"/>
	<path fill-rule="evenodd" clip-rule="evenodd" fill="#004DA1" d="M474.376,1376.223c0,0-2.259,2.281-5.908,5.003
		c-3.698,2.776-8.71,6.005-14.514,8.737c-11.557,5.468-25.632,7.416-38.483,4.26c-12.874-3.114-24.441-11.378-32.108-21.614
		c-3.849-5.166-6.794-10.39-8.743-14.607c-1.97-4.113-2.895-7.168-2.895-7.168s2.298-2.31,5.917-5.032
		c3.691-2.836,8.742-6.046,14.543-8.843c11.57-5.467,25.63-7.369,38.462-4.137c12.854,3.186,24.39,11.491,32.066,21.728
		c3.852,5.094,6.809,10.313,8.741,14.519C473.438,1373.168,474.376,1376.223,474.376,1376.223z"/>
</g>
<g>
	<g>
		<path fill-rule="evenodd" clip-rule="evenodd" fill="#F6CC2F" d="M1786.462,1641.754h-470.307
			c-29.428,0-53.291-23.863-53.291-53.292V998.851c0-29.431,23.863-53.292,53.291-53.292h470.307
			c29.428,0,53.291,23.86,53.291,53.292v589.611C1839.753,1617.891,1815.89,1641.754,1786.462,1641.754z"/>
		<path fill-rule="evenodd" clip-rule="evenodd" fill="#FED642" d="M1839.753,987.615v611.994c0,23.327-18.816,42.145-42.141,42.145
			h-248.086V945.56h248.086C1820.937,945.56,1839.753,964.371,1839.753,987.615z"/>
		<path fill-rule="evenodd" clip-rule="evenodd" fill="#0075BD" d="M1590.236,928.104c0-22.475-18.228-40.7-40.7-40.7
			c-22.48,0-40.699,18.225-40.699,40.7h-70.715c-5.179,0-9.372,4.2-9.372,9.379v31.895c0,15.77,12.774,28.55,28.543,28.55h184.49
			c15.757,0,28.544-12.781,28.544-28.55v-31.895c0-5.179-4.194-9.379-9.383-9.379H1590.236z"/>
	</g>
	<path fill-rule="evenodd" clip-rule="evenodd" fill="#F5A627" d="M1430.654,1081.453h-13.731c-4.854,0-8.79-3.936-8.79-8.791
		v-13.73c0-6.603-5.353-11.955-11.955-11.955h-26.045c-6.603,0-11.955,5.352-11.955,11.955v13.73c0,4.855-3.936,8.791-8.791,8.791
		h-13.731c-6.602,0-11.953,5.352-11.953,11.954v26.047c0,6.602,5.352,11.954,11.953,11.954h13.731c4.855,0,8.791,3.936,8.791,8.79
		v13.731c0,6.602,5.353,11.954,11.955,11.954h26.045c6.603,0,11.955-5.353,11.955-11.954v-13.731c0-4.854,3.936-8.79,8.79-8.79
		h13.731c6.603,0,11.954-5.353,11.954-11.954v-26.047C1442.608,1086.805,1437.256,1081.453,1430.654,1081.453z"/>
	<path fill-rule="evenodd" clip-rule="evenodd" fill="#F5A627" d="M1503.743,1076.625h229.819c12.848,0,23.359,10.512,23.359,23.36
		v12.888c0,12.848-10.512,23.36-23.359,23.36h-229.819c-12.849,0-23.36-10.513-23.36-23.36v-12.888
		C1480.382,1087.137,1490.894,1076.625,1503.743,1076.625z"/>
	<path fill-rule="evenodd" clip-rule="evenodd" fill="#F5A627" d="M1351.169,1247.446h396.724c8.73,0,15.873,7.143,15.873,15.873
		v5.27c0,8.73-7.143,15.873-15.873,15.873h-396.724c-8.729,0-15.872-7.143-15.872-15.873v-5.27
		C1335.297,1254.589,1342.44,1247.446,1351.169,1247.446z"/>
	<path fill-rule="evenodd" clip-rule="evenodd" fill="#F5A627" d="M1351.172,1335.046h396.719c8.731,0,15.875,7.144,15.875,15.875
		v5.271c0,8.731-7.144,15.875-15.875,15.875h-396.719c-8.731,0-15.875-7.144-15.875-15.875v-5.271
		C1335.297,1342.189,1342.441,1335.046,1351.172,1335.046z"/>
	<path fill-rule="evenodd" clip-rule="evenodd" fill="#F5A627" d="M1351.172,1428.834h396.719c8.731,0,15.875,7.144,15.875,15.875
		v5.271c0,8.731-7.144,15.875-15.875,15.875h-396.719c-8.731,0-15.875-7.144-15.875-15.875v-5.271
		C1335.297,1435.978,1342.441,1428.834,1351.172,1428.834z"/>
	<path fill-rule="evenodd" clip-rule="evenodd" fill="#F5A627" d="M1351.172,1522.621h217.024c8.731,0,15.875,7.144,15.875,15.876
		v5.27c0,8.731-7.144,15.875-15.875,15.875h-217.024c-8.731,0-15.875-7.144-15.875-15.875v-5.27
		C1335.297,1529.765,1342.441,1522.621,1351.172,1522.621z"/>
</g>
<g>
	<g>
		<path fill-rule="evenodd" clip-rule="evenodd" fill="#CEE5F6" d="M1582.736,1521.213c-69.028,0-125.668,53.011-131.451,120.541
			h396.398c-12.123-39.814-51.087-68.952-97.285-68.952c-19.604,0-37.9,5.252-53.402,14.333
			C1674.174,1547.727,1631.551,1521.213,1582.736,1521.213z"/>
		<path fill-rule="evenodd" clip-rule="evenodd" fill="#FFFFFF" d="M1582.738,1521.213c-41.559,0-78.617,19.218-102.801,49.244
			c6.604,3.882,13.806,7.561,21.565,10.981c46.132,20.338,111.939,31.582,177.087,36.378c63.275,4.656,125.922,3.229,153.406-6.097
			c-18.418-23.6-48.106-38.918-81.602-38.918c-19.604,0-37.895,5.252-53.396,14.333
			C1674.172,1547.727,1631.553,1521.213,1582.738,1521.213z"/>
	</g>
	<path fill-rule="evenodd" clip-rule="evenodd" fill="#FFFFFF" d="M1628.054,1520.18c-0.68,11.13,6.371,21.494,6.371,21.494
		s8.15-7.681,8.828-18.812c0.681-11.131-6.371-21.494-6.371-21.494S1628.733,1509.049,1628.054,1520.18z"/>
	<path fill-rule="evenodd" clip-rule="evenodd" fill="#FFFFFF" d="M1642.542,1528.181c-8.449,6.384-10.308,17.908-10.308,17.908
		s11.84,1.174,20.287-5.21c8.449-6.384,10.309-17.908,10.309-17.908S1650.991,1521.796,1642.542,1528.181z"/>
	<path fill-rule="evenodd" clip-rule="evenodd" fill="#CEE5F6" d="M1749.982,1610.794c0.451,7.409-4.242,14.31-4.242,14.31
		s-5.427-5.113-5.879-12.523s4.241-14.312,4.241-14.312S1749.531,1603.383,1749.982,1610.794z"/>
	<path fill-rule="evenodd" clip-rule="evenodd" fill="#CEE5F6" d="M1740.334,1616.121c5.626,4.249,6.863,11.923,6.863,11.923
		s-7.883,0.781-13.507-3.469c-5.625-4.251-6.862-11.923-6.862-11.923S1734.708,1611.87,1740.334,1616.121z"/>
</g>
<g>
	<g>
		<path fill-rule="evenodd" clip-rule="evenodd" fill="#E1F3FC" d="M1397.85,1634.331c41.055,53.162,218.586-74.246,218.586-74.246
			l-25.444-28.705l38.64,21.21c0,0,42.906-19.515,75.056-88.114c18.213-38.865,16.141-79.216,16.141-79.216
			s-95.285-18.952-145.802,11.767l26.389,47.023l-41.562-33.534C1559.853,1410.516,1353.806,1577.298,1397.85,1634.331z"/>
		<g>
			<path fill-rule="evenodd" clip-rule="evenodd" fill="#FFFFFF" d="M1404.352,1623.951c49.345-38.962,98.79-77.767,148.462-116.3
				c24.824-19.277,49.731-38.454,74.753-57.486c12.501-9.526,25.083-18.954,37.696-28.34c6.369-4.62,12.67-9.315,19.091-13.87
				l9.685-6.768c3.237-2.246,6.71-4.259,10.049-6.393c0.545-0.349,1.271-0.189,1.619,0.357c0.344,0.537,0.193,1.25-0.334,1.604
				l-0.157,0.105c-3.233,2.166-6.532,4.16-9.705,6.454l-9.5,6.923c-6.304,4.661-12.509,9.479-18.768,14.21
				c-12.41,9.622-24.787,19.285-37.091,29.051c-24.622,19.51-49.133,39.164-73.563,58.922
				c-48.876,39.489-97.541,79.262-146.073,119.165c-2.09,1.726-5.183,1.429-6.907-0.661c-1.726-2.09-1.43-5.182,0.66-6.907
				C1404.288,1624.002,1404.333,1623.966,1404.352,1623.951z"/>
		</g>
	</g>
	<g>
		<path fill-rule="evenodd" clip-rule="evenodd" fill="#CEE5F6" d="M1411.443,1637.125c74.013-11.278,45.795-253.205,45.795-253.205
			l-41.735,9.284l41.563-26.198c0,0,4.173-52.372-45.314-120.795c-28.038-38.765-68.49-58.558-68.49-58.558
			s-69.984,82.634-67.351,148.481l60.102-0.301l-55.156,22.383C1280.856,1358.217,1332.039,1649.225,1411.443,1637.125z"/>
		<g>
			<path fill-rule="evenodd" clip-rule="evenodd" fill="#FFFFFF" d="M1404.838,1625.176
				c-11.302-69.161-22.396-138.336-33.104-207.585c-5.371-34.62-10.599-69.265-15.624-103.943
				c-2.527-17.335-4.916-34.696-7.246-52.065c-1.06-8.705-2.229-17.386-3.198-26.106l-1.362-13.099
				c-0.438-4.37-0.524-8.843-0.798-13.251c-0.045-0.721,0.502-1.341,1.223-1.385c0.71-0.045,1.323,0.487,1.383,1.192l0.019,0.21
				c0.363,4.323,0.523,8.616,1.044,12.949l1.612,13.003c1.137,8.664,2.478,17.317,3.706,25.976
				c2.67,17.298,5.398,34.587,8.266,51.859c5.706,34.547,11.614,69.064,17.667,103.558c12.069,68.991,24.528,137.928,37.188,206.807
				c0.552,2.969-1.408,5.823-4.379,6.376c-2.97,0.551-5.824-1.409-6.375-4.379
				C1404.854,1625.266,1404.843,1625.202,1404.838,1625.176z"/>
		</g>
	</g>
	<g>
		<path fill-rule="evenodd" clip-rule="evenodd" fill="#FFFFFF" d="M1409.494,1635.45c76.833,25.096,167.2-221.845,167.2-221.845
			l-44.746-11.332l52.8-5.058c0,0,29.476-48.461,15.019-138.473c-8.19-50.996-37.568-89.737-37.568-89.737
			s-107.627,45.652-137.089,110.412l58.087,28.917l-64.05-5.226C1419.146,1303.109,1327.066,1608.525,1409.494,1635.45z"/>
		<g>
			<path fill-rule="evenodd" clip-rule="evenodd" fill="#E1F3FC" d="M1408.934,1620.721
				c22.716-72.167,45.638-144.245,68.968-216.208c11.646-35.985,23.444-71.925,35.452-107.798
				c5.988-17.94,12.123-35.838,18.317-53.715c3.209-8.907,6.299-17.845,9.604-26.724l5.053-13.288
				c1.701-4.427,3.792-8.78,5.67-13.163c0.307-0.716,1.137-1.048,1.853-0.74c0.706,0.302,1.039,1.112,0.754,1.822l-0.085,0.211
				c-1.751,4.344-3.683,8.561-5.287,12.99l-4.765,13.319c-3.114,8.905-6.026,17.899-9.05,26.842
				c-5.833,17.975-11.605,35.968-17.234,54.012c-11.289,36.078-22.367,72.226-33.295,108.42
				c-21.893,72.376-43.383,144.889-64.652,217.443c-0.91,3.13-4.188,4.93-7.319,4.019c-3.131-0.912-4.93-4.188-4.019-7.319
				C1408.906,1620.815,1408.926,1620.749,1408.934,1620.721z"/>
		</g>
	</g>
</g>
<path fill-rule="evenodd" clip-rule="evenodd" fill="#F5A627" d="M1000.077,1160.707l-30.347,9.868
	c-8.213,2.674-20.191-1.676-26.178-9.416c-5.552-7.217-11.57-14.228-17.938-20.848c-6.754-7.033-9.155-19.501-5.253-27.19
	l14.583-28.63c10.223-20.036,2.209-44.677-17.852-54.896l-46.456-23.644c-9.714-4.944-20.761-5.808-31.118-2.436
	c-10.388,3.37-18.813,10.557-23.761,20.282l-14.557,28.619c-2.333,4.616-7.453,8.553-13.667,10.578
	c-3.872,1.254-7.808,1.686-11.417,1.173c-9.077-1.234-18.318-2.016-27.432-2.252c-9.823-0.267-20.365-7.454-23.027-15.636
	l-9.864-30.347c-6.959-21.393-30.018-33.132-51.426-26.174l-49.58,16.12c-21.397,6.96-33.148,30.029-26.193,51.42l9.864,30.336
	c2.667,8.194-1.65,20.21-9.422,26.193c-7.212,5.541-14.249,11.587-20.864,17.919c-2.58,2.457-6.096,4.523-9.91,5.758
	c-6.229,2.034-12.701,1.829-17.305-0.525l-28.564-14.536c-9.714-4.955-20.786-5.839-31.138-2.467
	c-10.388,3.383-18.812,10.598-23.756,20.313l-23.676,46.485c-4.949,9.714-5.823,20.733-2.451,31.137
	c3.361,10.343,10.568,18.772,20.267,23.728l28.625,14.587c7.705,3.916,13.101,15.41,11.785,25.062
	c-1.249,9.099-2.02,18.32-2.245,27.419c-0.278,9.774-7.438,20.343-15.646,23.016l-30.342,9.857
	c-21.386,6.961-33.132,30.019-26.172,51.411l16.129,49.621c6.96,21.403,30.023,33.143,51.411,26.184l30.341-9.858
	c8.213-2.672,20.195,1.604,26.188,9.405c5.526,7.197,11.57,14.197,17.933,20.828c6.744,7.031,9.134,19.501,5.217,27.2
	l-14.583,28.629c-10.187,20.047-2.184,44.668,17.852,54.896l46.517,23.686c9.735,4.934,20.775,5.829,31.164,2.446
	c10.351-3.361,18.785-10.578,23.731-20.303l14.576-28.62c2.349-4.585,7.463-8.563,13.677-10.577
	c3.859-1.254,7.807-1.686,11.385-1.172c9.088,1.233,18.319,1.983,27.406,2.23c9.798,0.277,20.35,7.422,23.022,15.646l9.863,30.337
	c6.96,21.394,30.034,33.132,51.431,26.184l49.575-16.13c21.403-6.96,33.168-30.026,26.208-51.42l-9.863-30.337
	c-2.672-8.224,1.619-20.199,9.407-26.192c7.236-5.552,14.253-11.586,20.873-17.93c2.55-2.466,6.082-4.512,9.88-5.745
	c6.25-2.024,12.721-1.831,17.316,0.503l28.615,14.578c9.714,4.954,20.76,5.838,31.148,2.456
	c10.353-3.362,18.776-10.579,23.727-20.293l23.658-46.517c10.197-20.046,2.195-44.666-17.85-54.885l-28.589-14.556
	c-7.7-3.927-13.097-15.421-11.755-25.083c1.249-9.068,2-18.31,2.215-27.406c0.278-9.809,7.438-20.345,15.651-23.018l30.336-9.858
	c21.398-6.96,33.143-30.028,26.188-51.42l-16.124-49.591C1044.538,1165.496,1021.464,1153.757,1000.077,1160.707L1000.077,1160.707z
	 M856.353,1277.754L856.353,1277.754c20.391,62.696-14.027,130.34-76.729,150.725c-62.734,20.396-130.33-14.062-150.72-76.761
	c-20.385-62.697,14.021-130.298,76.756-150.704C768.362,1180.629,835.968,1215.057,856.353,1277.754z"/>
<path fill-rule="evenodd" clip-rule="evenodd" fill="none" stroke="#FFFFFF" stroke-width="7.9999" stroke-linecap="round" stroke-linejoin="round" stroke-miterlimit="22.9256" stroke-dasharray="15.9999,23.9998" d="
	M490.049,965.921c22.782-318.678,287.959-565.575,607.45-565.575c290.961,0,541.281,205.819,597.517,491.295"/>
<g>
	<circle fill-rule="evenodd" clip-rule="evenodd" fill="#004DA1" cx="760.729" cy="501.888" r="94.668"/>
	<path fill-rule="evenodd" clip-rule="evenodd" fill="#F5A627" d="M780.578,464.612c-8.316,1.253-15.459,6.072-19.848,12.841
		c-5.46-8.419-15.178-13.821-26.118-13.099c-8.911,0.588-17.023,5.67-22.006,13.083c-20.933,31.142,31.965,71.104,45.206,80.406
		c1.761,1.237,4.074,1.224,5.827-0.025c13.174-9.388,65.733-49.564,45.458-79.629C802.697,468.701,791.896,462.906,780.578,464.612z
		"/>
	<g>
		<path fill-rule="evenodd" clip-rule="evenodd" fill="#004DA1" d="M764.751,527.737h-8.045c-1.408,0-2.549-1.142-2.549-2.549
			v-27.322c0-1.408,1.142-2.549,2.549-2.549h8.045c1.409,0,2.55,1.141,2.55,2.549v27.322
			C767.301,526.596,766.16,527.737,764.751,527.737z"/>
		<path fill-rule="evenodd" clip-rule="evenodd" fill="#004DA1" d="M744.52,515.55v-8.045c0-1.408,1.14-2.548,2.548-2.548h27.322
			c1.408,0,2.55,1.141,2.55,2.548v8.045c0,1.408-1.142,2.549-2.55,2.549h-27.322C745.66,518.099,744.52,516.958,744.52,515.55z"/>
	</g>
</g>
<g>
	<path fill-rule="evenodd" clip-rule="evenodd" fill="#004DA1" d="M1181.82,486.209c-32.433-32.438-36.417-82.539-11.938-119.297
		c1.277-1.911,2.607-3.792,4.045-5.625c2.408-3.109,5.041-6.099,7.892-8.946c12.563-12.564,27.775-20.863,43.847-24.883
		c0.964-0.24,1.938-0.459,2.905-0.68c30.422-6.597,63.461,1.917,87.112,25.568c36.961,36.956,36.969,96.887,0.005,133.863
		C1278.714,523.173,1218.788,523.179,1181.82,486.209z"/>
	<g>
		<rect x="1213.396" y="386.918" fill-rule="evenodd" clip-rule="evenodd" fill="#F5A627" width="70.928" height="70.931"/>
		<g>
			<path fill-rule="evenodd" clip-rule="evenodd" fill="#004DA1" d="M1248.86,438.396c0-0.005,0-0.041,0-0.041
				c-0.162,0-0.301,0.017-0.46,0.019c-0.157-0.002-0.292-0.019-0.454-0.019c0,0,0,0.036,0.003,0.041
				c-9.854,0.441-10.231,7.781-7.442,11.205c2.373,2.91,0.641,7.433,0.583,9.16c-0.011,0.364-0.03,0.576-0.03,0.576l7.026,1.338
				c-0.038,0.143-0.085,0.204-0.14,0.148l0.454-0.088l0.46,0.088c-0.056,0.055-0.102-0.005-0.144-0.148l7.027-1.338
				c0,0-0.018-0.212-0.028-0.576c-0.061-1.727-1.789-6.25,0.581-9.16C1259.085,446.177,1258.708,438.837,1248.86,438.396z"/>
			<path fill-rule="evenodd" clip-rule="evenodd" fill="#F5A627" d="M1301.3,422.839c0.003,0,0.042,0,0.042,0
				c0-0.162-0.02-0.297-0.022-0.457c0.003-0.158,0.022-0.292,0.022-0.455c0,0-0.039,0-0.042,0.003
				c-0.44-9.854-7.781-10.231-11.206-7.442c-2.907,2.374-7.432,0.641-9.158,0.583c-0.365-0.014-0.577-0.03-0.577-0.03l-1.338,7.027
				c-0.142-0.042-0.204-0.085-0.146-0.141l0.085,0.455l-0.085,0.457c-0.058-0.055,0.005-0.099,0.146-0.141l1.338,7.027
				c0,0,0.212-0.017,0.577-0.03c1.727-0.058,6.251-1.79,9.158,0.583C1293.519,433.068,1300.86,432.69,1301.3,422.839z"/>
			<path fill-rule="evenodd" clip-rule="evenodd" fill="#F5A627" d="M1196.196,422.839c-0.003,0-0.042,0-0.042,0
				c0-0.162,0.02-0.297,0.021-0.457c-0.002-0.158-0.021-0.292-0.021-0.455c0,0,0.039,0,0.042,0.003
				c0.44-9.854,7.78-10.231,11.206-7.442c2.91,2.374,7.431,0.641,9.158,0.583c0.366-0.014,0.577-0.03,0.577-0.03l1.338,7.027
				c0.145-0.042,0.204-0.085,0.149-0.141l-0.088,0.455l0.088,0.457c0.055-0.055-0.005-0.099-0.149-0.141l-1.338,7.027
				c0,0-0.211-0.017-0.577-0.03c-1.728-0.058-6.248-1.79-9.158,0.583C1203.976,433.068,1196.636,432.69,1196.196,422.839z"/>
			<path fill-rule="evenodd" clip-rule="evenodd" fill="#004DA1" d="M1248.86,403.613c0,0.002,0,0.041,0,0.041
				c-0.162,0-0.301-0.016-0.46-0.019c-0.157,0.003-0.292,0.019-0.454,0.019c0,0,0-0.039,0.003-0.041
				c-9.854-0.441-10.231-7.782-7.442-11.204c2.373-2.91,0.641-7.434,0.583-9.161c-0.011-0.366-0.03-0.579-0.03-0.579l7.026-1.335
				c-0.038-0.143-0.085-0.204-0.14-0.148l0.454,0.088l0.46-0.088c-0.056-0.055-0.102,0.005-0.144,0.148l7.027,1.335
				c0,0-0.018,0.213-0.028,0.579c-0.061,1.727-1.789,6.25,0.581,9.161C1259.085,395.831,1258.708,403.171,1248.86,403.613z"/>
		</g>
	</g>
</g>
<g>
	<path fill-rule="evenodd" clip-rule="evenodd" fill="#004DA1" d="M1695.548,625.63c32.434,32.434,36.412,82.539,11.941,119.295
		c-1.273,1.912-2.617,3.789-4.052,5.626c-2.405,3.105-5.037,6.096-7.89,8.945c-12.563,12.567-27.773,20.857-43.845,24.876
		c-0.965,0.244-1.937,0.468-2.905,0.682c-30.424,6.606-63.463-1.909-87.114-25.562c-36.963-36.961-36.966-96.896-0.003-133.858
		C1598.65,588.665,1658.58,588.668,1695.548,625.63z"/>
	<g>
		<path fill-rule="evenodd" clip-rule="evenodd" fill="#F5A627" d="M1603.547,716.749c0,4.239-3.437,7.676-7.676,7.676
			c-4.238,0-7.674-3.437-7.674-7.676v-42.336c0-4.238,3.436-7.677,7.674-7.677c4.239,0,7.676,3.438,7.676,7.677V716.749z"/>
		<path fill-rule="evenodd" clip-rule="evenodd" fill="#F5A627" d="M1592.531,707.464c0,4.102-3.326,7.427-7.429,7.427
			s-7.428-3.325-7.428-7.427v-23.768c0-4.102,3.325-7.429,7.428-7.429s7.429,3.327,7.429,7.429V707.464z"/>
		<path fill-rule="evenodd" clip-rule="evenodd" fill="#F5A627" d="M1648.608,716.749c0,4.239,3.438,7.676,7.676,7.676
			c4.237,0,7.675-3.437,7.675-7.676v-42.336c0-4.238-3.438-7.677-7.675-7.677c-4.238,0-7.676,3.438-7.676,7.677V716.749z"/>
		<path fill-rule="evenodd" clip-rule="evenodd" fill="#F5A627" d="M1659.626,707.464c0,4.102,3.325,7.427,7.428,7.427
			c4.102,0,7.427-3.325,7.427-7.427v-23.768c0-4.102-3.325-7.429-7.427-7.429c-4.103,0-7.428,3.327-7.428,7.429V707.464z"/>
		<rect x="1602.185" y="686.667" fill-rule="evenodd" clip-rule="evenodd" fill="#F5A627" width="49.207" height="17.826"/>
	</g>
</g>
<g>
	<circle fill-rule="evenodd" clip-rule="evenodd" fill="#004DA1" cx="502.275" cy="880.246" r="94.668"/>
	<polygon fill-rule="evenodd" clip-rule="evenodd" fill="#F5A627" points="549.622,830.479 493.032,830.479 464.36,871 494.001,871 
		454.929,930.014 549.245,858.708 527.604,858.708 	"/>
</g>
<path fill-rule="evenodd" clip-rule="evenodd" fill="#FFFFFF" d="M1705.355,859.021c6.905,6.905,7.752,17.573,2.542,25.398
	c-0.271,0.407-0.557,0.807-0.862,1.198c-0.512,0.662-1.072,1.298-1.68,1.905c-2.675,2.675-5.913,4.44-9.335,5.296
	c-0.205,0.052-0.412,0.1-0.618,0.145c-6.478,1.407-13.512-0.406-18.547-5.442c-7.869-7.869-7.87-20.629-0.001-28.499
	C1684.725,851.151,1697.484,851.151,1705.355,859.021z"/>
<g>
	<g>
		<path fill-rule="evenodd" clip-rule="evenodd" fill="#004DA1" d="M609.296,1543.442H552.25c-13.73,0-24.857,11.128-24.857,24.856
			v15.652c0,13.729,11.126,24.855,24.857,24.855h57.046c13.73,0,24.856-11.127,24.856-24.855v-15.652
			C634.152,1554.57,623.026,1543.442,609.296,1543.442L609.296,1543.442z M615.479,1583.951L615.479,1583.951
			c0,3.406-2.775,6.18-6.179,6.18h-57.05c-3.409,0-6.18-2.773-6.18-6.18v-15.65c0-3.412,2.771-6.183,6.18-6.183h57.05
			c3.404,0,6.179,2.771,6.179,6.183V1583.951z"/>
		<path fill-rule="evenodd" clip-rule="evenodd" fill="#FFFFFF" d="M693.533,1770.789H466.771
			c-13.707,0-24.816-11.109-24.816-24.815V1600.94c0-13.704,11.109-24.816,24.816-24.816h226.762
			c13.703,0,24.813,11.112,24.813,24.816v145.033C718.345,1759.68,707.235,1770.789,693.533,1770.789z"/>
		<path fill-rule="evenodd" clip-rule="evenodd" fill="#E1F3FC" d="M691.468,1576.124H580.772v194.665h110.696
			c14.844,0,26.877-12.033,26.877-26.878v-140.907C718.345,1588.159,706.313,1576.124,691.468,1576.124z"/>
	</g>
	<path fill-rule="evenodd" clip-rule="evenodd" fill="#F5A627" d="M628.648,1647.954h-14.02c-4.957,0-8.975-4.02-8.975-8.977
		v-14.019c0-6.742-5.465-12.206-12.207-12.206h-26.593c-6.742,0-12.206,5.464-12.206,12.206v14.019c0,4.957-4.019,8.977-8.976,8.977
		h-14.02c-6.741,0-12.206,5.464-12.206,12.205v26.595c0,6.741,5.465,12.206,12.206,12.206h14.02c4.958,0,8.976,4.019,8.976,8.976
		v14.021c0,6.74,5.464,12.205,12.206,12.205h26.593c6.741,0,12.207-5.465,12.207-12.205v-14.021c0-4.957,4.019-8.976,8.975-8.976
		h14.02c6.742,0,12.207-5.465,12.207-12.206v-26.595C640.855,1653.418,635.39,1647.954,628.648,1647.954z"/>
</g>
<g>
	<g>
		<path fill-rule="evenodd" clip-rule="evenodd" fill="#0075BD" d="M1387.158,1625.278c102.64,1.305,197.553-70.034,241.901-161.668
			c3.778-7.803,16.211-2.524,12.412,5.338c-47.014,97.117-144.824,171.125-256.152,169.715
			C1376.628,1638.545,1378.576,1625.167,1387.158,1625.278z"/>
	</g>
	<path fill-rule="evenodd" clip-rule="evenodd" fill="#0075BD" d="M1634.673,1482.111c0,0,3.174-0.268,7.629-1.377
		c4.481-1.04,10.164-2.858,16.002-5.589c11.573-5.402,22.038-14.987,27.819-26.892c5.797-11.913,6.811-26.072,3.83-38.517
		c-1.518-6.235-3.666-11.87-5.669-16.052c-1.906-4.145-3.682-6.808-3.682-6.808s-3.228,0.276-7.646,1.346
		c-4.523,1.03-10.233,2.872-16.062,5.562c-11.612,5.419-22.048,15.029-27.754,26.964c-5.706,11.953-6.682,26.121-3.738,38.569
		c1.491,6.198,3.623,11.816,5.601,15.975C1632.922,1479.44,1634.673,1482.111,1634.673,1482.111z"/>
	<path fill-rule="evenodd" clip-rule="evenodd" fill="#0075BD" d="M1577.236,1546.649c0,0,1.561,2.805,4.343,6.408
		c2.814,3.669,6.772,8.127,11.627,12.321c9.658,8.376,22.688,14.042,35.915,14.461c13.237,0.466,26.603-4.379,36.742-12.174
		c5.098-3.939,9.339-8.178,12.352-11.716c3.004-3.431,4.717-6.124,4.717-6.124s-1.592-2.843-4.345-6.439
		c-2.792-3.725-6.791-8.176-11.626-12.431c-9.671-8.38-22.701-13.996-35.929-14.337c-13.237-0.392-26.583,4.502-36.731,12.295
		c-5.08,3.868-9.334,8.1-12.326,11.63C1578.96,1543.959,1577.236,1546.649,1577.236,1546.649z"/>
	<path fill-rule="evenodd" clip-rule="evenodd" fill="#0075BD" d="M1552.498,1564.66c0,0,2.367-2.141,5.26-5.69
		c2.94-3.529,6.374-8.424,9.386-14.09c5.996-11.291,8.557-25.259,6.011-38.246c-2.539-12.998-10.261-24.919-20.158-33.052
		c-4.947-4.081-10.063-7.266-14.158-9.394c-4.035-2.139-7.073-3.222-7.073-3.222s-2.41,2.191-5.292,5.7
		c-2.972,3.548-6.438,8.452-9.467,14.114c-6.007,11.319-8.514,25.282-5.901,38.229c2.632,12.977,10.395,24.873,20.261,33.028
		c4.93,4.077,9.996,7.254,14.089,9.407C1549.488,1563.584,1552.498,1564.66,1552.498,1564.66z"/>
	<path fill-rule="evenodd" clip-rule="evenodd" fill="#0075BD" d="M1471.606,1617.835c0,0,2.38-2.138,5.252-5.71
		c2.946-3.537,6.407-8.402,9.417-14.096c5.985-11.28,8.549-25.243,6.003-38.247c-2.563-12.974-10.274-24.919-20.165-33.023
		c-4.968-4.086-10.039-7.277-14.168-9.409c-4.03-2.155-7.06-3.205-7.06-3.205s-2.387,2.166-5.281,5.672
		c-2.999,3.572-6.445,8.468-9.479,14.111c-6.009,11.323-8.526,25.297-5.884,38.246c2.603,12.97,10.374,24.886,20.226,33.024
		c4.939,4.079,10.022,7.256,14.11,9.395C1468.595,1616.745,1471.606,1617.835,1471.606,1617.835z"/>
	<path fill-rule="evenodd" clip-rule="evenodd" fill="#0075BD" d="M1501.03,1612.16c0,0,1.562,2.805,4.344,6.409
		c2.814,3.668,6.772,8.127,11.626,12.321c9.659,8.376,22.689,14.042,35.916,14.461c13.237,0.466,26.602-4.38,36.742-12.175
		c5.098-3.938,9.339-8.177,12.352-11.715c3.004-3.432,4.717-6.125,4.717-6.125s-1.592-2.842-4.345-6.438
		c-2.792-3.725-6.791-8.176-11.626-12.431c-9.671-8.38-22.701-13.997-35.929-14.338c-13.237-0.391-26.583,4.503-36.731,12.296
		c-5.08,3.868-9.334,8.1-12.327,11.629C1502.755,1609.471,1501.03,1612.16,1501.03,1612.16z"/>
</g>
<g>
	<g>
		<path fill-rule="evenodd" clip-rule="evenodd" fill="#004DA1" d="M1378.453,1628.406c62.12-43.403,88.334-127.048,75.484-201.098
			c-1.093-6.307,8.636-8.493,9.742-2.142c13.611,78.485-13.19,164.979-80.567,212.059
			C1377.849,1640.896,1373.257,1632.033,1378.453,1628.406z"/>
	</g>
	<path fill-rule="evenodd" clip-rule="evenodd" fill="#004DA1" d="M1461.864,1436.34c0,0,1.568-1.642,3.424-4.338
		c1.902-2.672,4.079-6.326,5.907-10.541c3.631-8.351,4.693-18.412,2.159-27.5c-2.529-9.101-8.674-17.142-16.142-22.38
		c-3.756-2.614-7.564-4.609-10.608-5.896c-2.976-1.313-5.182-1.897-5.182-1.897s-1.594,1.672-3.448,4.329
		c-1.93,2.688-4.109,6.367-5.952,10.555c-3.643,8.379-4.679,18.439-2.09,27.508c2.597,9.079,8.767,17.106,16.217,22.365
		c3.724,2.606,7.515,4.601,10.534,5.887C1459.667,1435.74,1461.864,1436.34,1461.864,1436.34z"/>
	<path fill-rule="evenodd" clip-rule="evenodd" fill="#004DA1" d="M1461.663,1497.933c0,0,2.158,0.761,5.346,1.372
		c3.236,0.63,7.455,1.143,12.028,1.091c9.114-0.088,18.749-3.216,26.012-9.237c7.289-6.002,12.14-14.901,13.874-23.853
		c0.862-4.511,1.127-8.777,1.064-12.09c-0.016-3.251-0.372-5.498-0.372-5.498s-2.192-0.767-5.361-1.388
		c-3.25-0.671-7.488-1.159-12.08-1.149c-9.122,0.092-18.733,3.244-25.959,9.31c-7.255,6.042-12.072,14.957-13.813,23.912
		c-0.887,4.465-1.16,8.733-1.092,12.032C1461.314,1495.682,1461.663,1497.933,1461.663,1497.933z"/>
	<path fill-rule="evenodd" clip-rule="evenodd" fill="#004DA1" d="M1456.956,1519.234c0,0,0.254-2.261,0.122-5.523
		c-0.096-3.273-0.574-7.509-1.641-11.957c-2.13-8.862-7.357-17.532-14.851-23.266c-7.494-5.743-17.248-8.464-26.374-8.134
		c-4.569,0.156-8.807,0.872-11.998,1.669c-3.164,0.763-5.299,1.62-5.299,1.62s-0.253,2.308-0.136,5.543
		c0.089,3.298,0.554,7.554,1.61,12.009c2.136,8.882,7.391,17.523,14.9,23.204c7.533,5.688,17.297,8.376,26.417,8.073
		c4.56-0.151,8.765-0.847,11.968-1.629C1454.84,1520.081,1456.956,1519.234,1456.956,1519.234z"/>
	<path fill-rule="evenodd" clip-rule="evenodd" fill="#004DA1" d="M1438.863,1585.833c0,0,0.261-2.265,0.107-5.529
		c-0.096-3.28-0.545-7.514-1.626-11.976c-2.13-8.851-7.354-17.52-14.855-23.262c-7.495-5.72-17.255-8.458-26.364-8.115
		c-4.583,0.164-8.799,0.854-12.01,1.665c-3.171,0.752-5.285,1.622-5.285,1.622s-0.251,2.283-0.142,5.523
		c0.085,3.323,0.556,7.565,1.602,12.013c2.138,8.885,7.392,17.537,14.918,23.205c7.515,5.698,17.292,8.393,26.397,8.087
		c4.564-0.153,8.779-0.857,11.973-1.646C1436.74,1586.673,1438.863,1585.833,1438.863,1585.833z"/>
	<path fill-rule="evenodd" clip-rule="evenodd" fill="#004DA1" d="M1447.13,1562.046c0,0,2.047,1.023,5.133,2.027
		c3.132,1.028,7.255,2.062,11.799,2.579c9.055,1.049,19.004-0.854,26.959-5.926c7.98-5.048,13.901-13.273,16.737-21.939
		c1.417-4.368,2.21-8.568,2.562-11.862c0.39-3.229,0.314-5.503,0.314-5.503s-2.079-1.033-5.146-2.044
		c-3.142-1.07-7.285-2.083-11.843-2.645c-9.063-1.045-18.991,0.887-26.916,6.004c-7.951,5.092-13.841,13.339-16.683,22.007
		c-1.436,4.319-2.238,8.521-2.581,11.803C1447.064,1559.769,1447.13,1562.046,1447.13,1562.046z"/>
</g>
<g>
	<path fill-rule="evenodd" clip-rule="evenodd" fill="#004DA1" d="M1400.452,1641.28c25.713-1.396,13.235-17.443,1.38-42.363
		c-96.185-202.18,18.383-365.147,37.143-387.951c28.116-34.18,49.663-71.401,64.689-109.506
		c14.439-36.61,22.861-74.033,25.167-110.371c3.697-94.172-14.594-172.036-57.675-235.705
		c-88.386-130.615-212.125-190.116-355.966-201.171c-13.509-1.039-26.944-1.221-40.299-0.649v0.326h-0.792v-0.306
		c-1.906,0.086-3.811,0.188-5.713,0.306h-0.006l0,0c-57.29,3.53-113.052,21.108-166.635,47.378
		c-14.889,7.299-29.527,15.276-44.032,23.49C755.915,682.409,699.28,770.92,704.084,900.61
		c2.693,72.785-29.712,125.761-77.585,170.284c-8.657,8.051-17.258,16.058-24.345,25.715c-0.935,1.274-1.839,2.585-2.717,3.923
		c-0.505,0.771-1.032,1.521-1.518,2.313c-13.171,21.52-10.454,37.518,9.193,51.063c12.591,8.678,25.877,16.131,36.897,27.384
		c16.829,17.182,17.917,27.317,5.071,48.565c-14.459,23.919-14.383,24.896,7.836,41.89c5.964,4.562,12.277,7.993,3.9,16.625
		c-12.327,12.698-7.917,25.091,2.698,34.345c14.899,12.99,17.139,29.653,14.341,48.285c-2.441,16.255-6.042,32.304-9.082,48.455
		c-8.204,43.573,3.222,63.799,42.591,75.248c41.092,11.949,81.986,1.599,122.965-2.357c27.466-2.652,54.508-12.206,82.612-5.253
		c18.243,4.516,28.315,15.673,30.66,36.102c3.417,29.796,12.286,58.271,17.354,87.588c4.131,23.911,14.545,31.379,36.079,30.413
		c11.34-0.507,25.746-0.847,42.317-1.057h123.445c40.677,0.287,82.442,0.736,119.43,1.088
		C1341.474,1641.755,1386.065,1642.061,1400.452,1641.28z"/>
	<path fill-rule="evenodd" clip-rule="evenodd" fill="#F5A627" d="M1265.604,956.642h-53.65c-18.967,0-34.345-15.378-34.345-34.348
		v-53.647c0-25.798-20.915-46.709-46.71-46.709h-101.765c-25.798,0-46.709,20.911-46.709,46.709v53.647
		c0,18.97-15.378,34.348-34.348,34.348h-53.65c-25.795,0-46.706,20.911-46.706,46.706v101.771c0,25.795,20.911,46.706,46.706,46.706
		h53.65c18.97,0,34.348,15.379,34.348,34.349v53.65c0,25.795,20.911,46.706,46.709,46.706h101.765
		c25.795,0,46.71-20.911,46.71-46.706v-53.65c0-18.97,15.378-34.349,34.345-34.349h53.65c25.798,0,46.709-20.911,46.709-46.706
		v-101.771C1312.313,977.553,1291.402,956.642,1265.604,956.642z"/>
</g>
<path fill-rule="evenodd" clip-rule="evenodd" fill="#006AB5" d="M886.374,1738.286c32.945,0,62.681,13.712,83.826,35.745
	c8.725-9.096,21.003-14.76,34.604-14.76c13.605,0,25.883,5.664,34.611,14.76H970.2H802.557H668.442
	c16.915-17.625,40.704-28.595,67.057-28.595c26.355,0,50.144,10.97,67.058,28.595
	C823.698,1751.998,853.435,1738.286,886.374,1738.286z"/>
<path fill-rule="evenodd" clip-rule="evenodd" fill="#006AB5" d="M1285.562,1672.759c-20.752,0-39.483,8.637-52.803,22.516
	c-5.495-5.729-13.229-9.297-21.797-9.297c-8.569,0-16.303,3.567-21.802,9.297h43.599h105.601
	C1325.042,1681.396,1306.311,1672.759,1285.562,1672.759z"/>
<path fill-rule="evenodd" clip-rule="evenodd" fill="#006AB5" d="M1527.321,1742.953c25.454,0,48.43,10.595,64.767,27.618
	c6.74-7.028,16.227-11.403,26.736-11.403c10.511,0,19.997,4.375,26.741,11.403h-53.478H1462.56
	C1478.895,1753.548,1501.87,1742.953,1527.321,1742.953z"/>
<g>
	<g>
		<path fill-rule="evenodd" clip-rule="evenodd" fill="#F5A627" d="M1609.518,477.243c18.8,0,18.832-29.22,0-29.22
			C1590.716,448.023,1590.685,477.243,1609.518,477.243z"/>
	</g>
</g>
<g>
	<g>
		<path fill-rule="evenodd" clip-rule="evenodd" fill="#F5A627" d="M1658.8,477.243c18.8,0,18.831-29.22,0-29.22
			C1639.999,448.023,1639.966,477.243,1658.8,477.243z"/>
	</g>
</g>
<g>
	<g>
		<path fill-rule="evenodd" clip-rule="evenodd" fill="#F5A627" d="M1561.067,477.243c18.8,0,18.832-29.22,0-29.22
			C1542.265,448.023,1542.234,477.243,1561.067,477.243z"/>
	</g>
</g>
<g>
	<g>
		<path fill-rule="evenodd" clip-rule="evenodd" fill="#004DA1" d="M1559.643,432.617c18.8,0,18.832-29.22,0-29.22
			C1540.841,403.397,1540.81,432.617,1559.643,432.617z"/>
	</g>
</g>
<g>
	<g>
		<path fill-rule="evenodd" clip-rule="evenodd" fill="#004DA1" d="M1608.925,432.617c18.8,0,18.831-29.22,0-29.22
			C1590.124,403.397,1590.091,432.617,1608.925,432.617z"/>
	</g>
</g>
<g>
	<g>
		<path fill-rule="evenodd" clip-rule="evenodd" fill="#004DA1" d="M1511.192,432.617c18.8,0,18.832-29.22,0-29.22
			C1492.39,403.397,1492.359,432.617,1511.192,432.617z"/>
	</g>
</g>
<g>
	<g>
		<path fill-rule="evenodd" clip-rule="evenodd" fill="#004DA1" d="M403.973,610.004c18.8,0,18.831-29.22,0-29.22
			C385.171,580.784,385.14,610.004,403.973,610.004z"/>
	</g>
</g>
<g>
	<g>
		<path fill-rule="evenodd" clip-rule="evenodd" fill="#004DA1" d="M453.255,610.004c18.8,0,18.832-29.22,0-29.22
			C434.453,580.784,434.421,610.004,453.255,610.004z"/>
	</g>
</g>
<path fill-rule="evenodd" clip-rule="evenodd" fill="none" stroke="#004DA1" stroke-width="4" stroke-miterlimit="22.9256" d="
	M864.892,1933.796c0.01,16.105,13.078,29.151,29.186,29.141l61.442-0.022l-18.849,0.002l-0.042-58.321l-42.597,0.015
	C877.927,1904.624,864.881,1917.688,864.892,1933.796L864.892,1933.796z M1078.954,1904.578c-0.462-0.021-0.927-0.033-1.394-0.033
	l-127.313,0.045L1078.954,1904.578z"/>
<path fill-rule="evenodd" clip-rule="evenodd" fill="none" stroke="#004DA1" stroke-width="4" stroke-miterlimit="22.9256" d="
	M936.631,1904.591l341.791-0.03c8.059-0.008,15.351,3.231,20.604,8.514c5.288,5.282,8.574,12.569,8.579,20.625
	c0.015,16.075-13.063,29.175-29.139,29.184l-341.794,0.033L936.631,1904.591z"/>
<text transform="matrix(1 0 0 1 959.6411 1946.7236)"><tspan x="0" y="0" fill="#004DA1" font-family="'Arial-BoldMT'" font-size="29.363" letter-spacing="5">M</tspan><tspan x="30.094" y="0" fill="#004DA1" font-family="'Arial-BoldMT'" font-size="29.363" letter-spacing="5">ENTA</tspan><tspan x="132.564" y="0" fill="#004DA1" font-family="'Arial-BoldMT'" font-size="29.363">L</tspan><tspan x="150.5" y="0" fill="#004DA1" font-family="'Arial-BoldMT'" font-size="29.363" letter-spacing="5"> HEALT</tspan><tspan x="290.334" y="0" fill="#004DA1" font-family="'Arial-BoldMT'" font-size="29.363">H</tspan></text>
<text transform="matrix(1 0 0 1 622.3726 2013.7969)"><tspan x="0" y="0" fill="#004DA1" font-family="'ArialMT'" font-size="20.2513">L</tspan><tspan x="11.263" y="0" fill="#004DA1" font-family="'ArialMT'" font-size="20.2513">orem ipsum dolor sit amet, eos erroribus gubergren splendide ex, quot omnesque an nec. Qui id impedit </tspan><tspan x="182.366" y="24.302" fill="#004DA1" font-family="'ArialMT'" font-size="20.2513">re</tspan><tspan x="200.373" y="24.302" fill="#004DA1" font-family="'ArialMT'" font-size="20.2513">pudiare abhorreant, eum homero doming ut. Elit assum vel ne. </tspan></text>
</svg>
